<?xml version="1.0" encoding="utf-8"?>
<!-- Generator: Adobe Illustrator 26.5.0, SVG Export Plug-In . SVG Version: 6.00 Build 0)  -->
<svg version="1.1" id="Layer_1" xmlns="http://www.w3.org/2000/svg" xmlns:xlink="http://www.w3.org/1999/xlink" x="0px" y="0px"
	 viewBox="0 0 1920 1080" style="enable-background:new 0 0 1920 1080;" xml:space="preserve">
<style type="text/css">
	.st0{display:none;}
	.st1{display:inline;}
	.st2{fill:#D0DCC7;}
	.st3{fill:#A6BDA5;}
	.st4{display:inline;fill:#68846D;}
	.st5{display:inline;fill:#415345;}
	.st6{display:inline;fill:#EBEDE2;}
	.st7{display:inline;fill:#FAF9F6;}
	.st8{fill:#68846D;}
	.st9{clip-path:url(#SVGID_00000101063690987461292070000009374343317798854840_);}
	.st10{fill:#415345;}
	.st11{fill:none;stroke:#FAF9F6;stroke-width:3;stroke-miterlimit:10;}
</style>
<g id="Paleta" class="st0">
	<g class="st1">
		<rect x="2729.3" y="182" class="st2" width="91" height="91"/>
	</g>
	<g class="st1">
		<rect x="2729.3" y="273" class="st3" width="91" height="91"/>
	</g>
	<rect x="2729.3" y="364" class="st4" width="91" height="91"/>
	<rect x="2729.3" y="455" class="st5" width="91" height="91"/>
	<rect x="2729.6" y="91" class="st6" width="91" height="91"/>
	<rect x="2729.3" class="st7" width="91" height="91"/>
</g>
<g id="Vetores_00000009554608889600018870000013074079077260079777_">
	<g id="BG_00000164480496075012615370000006846032780829640330_">
		<rect class="st8" width="1920" height="1080"/>
	</g>
	<g>
		<g>
			<defs>
				<rect id="SVGID_1_" width="1920" height="1080"/>
			</defs>
			<clipPath id="SVGID_00000062892560639235096730000002001362826505599656_">
				<use xlink:href="#SVGID_1_"  style="overflow:visible;"/>
			</clipPath>
			<g style="clip-path:url(#SVGID_00000062892560639235096730000002001362826505599656_);">
				<path class="st3" d="M632.8,784.5c1.5,36.9-6.8,75.5-14.7,114.3c-13.1,64.2-42.4,120.6-82.3,171.8
					c-27.4,35.1-54.9,70-87.7,100.4c-42.7,39.6-87.7,76-139.2,103.8c-18.7,10.1-38.5,16.7-58.9,22.6c-31.6,9.1-63.1,18.6-95.2,25.9
					c-18.4,4.2-37.1,5.8-55.7,7.6c-20.4,2-40.8,2.8-61.4,0.9c-32-3-59.7-15.4-82.7-37.6c-29.6-28.6-50.5-62.9-63-102.2
					c-10.8-33.9-19.1-68.4-25.3-103.4c-3.7-20.8-3.2-42,1.1-62.9c0.9-4.5,1.8-9.2,4.2-13.2c4.3-7.4,6.2-15.2,7.2-23.7
					c3.1-26.6,11.9-51.6,21.9-76.3C-76.9,858.3-44,811.2-5.9,767.3c24.4-28,51.8-52.6,79.2-77.5c38.9-35.4,78.5-69.9,121.5-100.3
					c35.4-25,72.1-48,110.6-67.9c36.9-19.1,76.1-32,117.4-37.4c20.3-2.7,40.3-1.4,59.2,8c15,7.5,30.1,14.6,45.3,21.7
					c28.1,13.3,47.2,35.2,62,61.9c16.4,29.7,26.3,61.3,32.5,94.5C628.6,707.2,633,744,632.8,784.5z"/>
				<path class="st10" d="M1036.1,386c-14.2,9-28.9,17.6-46.2,23.3c-36.1,11.9-75.7,19-122.1,16.7c-1.6-0.1-3.3-0.2-4.8-0.3
					c-32-0.5-68.5-15-106.7-35.4c-16.6-8.9-33.2-18.5-49.7-28.8c-19.1-12-38.1-24.6-57-37.5C601,291,564,251,535.5,206
					c-17.8-28.1-31.5-55.6-41-82.2c-14-39.5-28.5-79.1-42.8-118.7c-14.8-40.8-23.8-79.4-27.2-115.8c-3.4-36-8.3-72.8-10.9-108.5
					c-2.3-30.5-0.7-58.8,4.2-85.2c2.4-13.2,4.8-26.4,7.1-39.7c3.1-18.2,9.7-33.8,21.3-45.5c7.1-7.2,15.7-12.9,27.4-15.5
					c19.7-4.4,45.3,9.7,64.5,35.7c7.9,10.6,12.7,20.9,16.3,30.9c9.8,27.3,17.7,53.9,21.3,78.9c5.8,40.4,22.9,83.6,51.2,129.5
					C646.2-98.4,669-67,696-36.3c20.3,23.1,44,43,67.9,62.6c29.6,24.2,59.9,42.5,90.9,55c17.3,6.9,34.5,13.9,51.7,20.4
					c22.2,8.5,44.5,18.5,67.2,30.1c28.1,14.3,54.4,33.1,80,55.2c20.6,17.8,38.7,36.9,55,57.2c15.7,19.4,20.1,35.1,15.2,47.7
					c-4.2,10.9-9.7,20.8-17.9,28.5c-7.1,6.8-12,15.6-17.9,23.4c-10.5,14-24.6,24.6-39.2,34.7C1044.9,381.3,1040.4,383.5,1036.1,386z
					"/>
				<path class="st3" d="M379.9,338.7c-17.6-0.9-34.6-5.2-51.6-8.9c-22.3-4.8-44.7-7.7-67.4-9.5c-21.1-1.7-42.3-1.6-63.4-0.7
					c-24.3,1.1-48.4,4.6-72.4,8.2c-35.5,5.2-68.3,18.4-100.8,32.8c-40.1,17.9-81.1,33.5-124,43.6c-13.7,3.2-27.7,5-41.9,5
					c-18.1,0-33.2-6.8-45.1-20.4c-3.7-4.2-5.1-9.3-6.8-14.6c-4.1-13-2-25.6,0.7-38.3c0.3-1.5,0.7-3.1,1-4.7
					c7.9-41.6,19.8-82.2,31.8-122.7c12.3-41.6,33.7-78.3,60.7-112.1c28.1-35.3,59-68,91.4-99.3c30-28.9,61.9-55.6,95.3-80.4
					c16.8-12.5,35.3-22.4,53.5-32.8c33.6-19.2,68.3-36.2,103.2-52.9c16.6-7.9,33.3-16,51.4-19.9c24.4-5.3,48.8-4.8,72.8,2.1
					c20.6,5.9,37,18.1,50,34.9c19.9,25.5,32.5,54.5,41,85.5c6.3,23.1,9.5,46.7,13.6,70.2c8.5,48.8,18.2,97.4,31.4,145.2
					c3.3,11.8,6.9,23.6,8.6,35.8c4.7,33.1,0,64.8-15.6,94.6c-10,19-26.7,31.3-44.9,41.6c-20.2,11.4-41.8,17.5-65,18
					C384.8,339.2,382.3,338.8,379.9,338.7z"/>
				<path class="st10" d="M1989.6-35.2c18.6,0,37.1,0,55.7,0c64.7,0,124.3,18.1,179.8,50.8c27.2,16.1,53.3,33.7,75.1,57
					c21.8,23.4,36.5,50.6,42.4,81.9c6.4,34.4,0,67.3-15.1,98.4c-14.4,29.5-32.7,56.6-53.9,81.6c-26.4,31.2-56.1,59.3-88.6,84.2
					c-28.5,21.9-61,36.5-94.5,48.9c-58.7,21.8-119.1,36.4-181.1,44.3c-50.6,6.4-101.4,7.4-152.2,4.3c-82.7-5-154.9-37.5-220.2-86.9
					c-12.4-9.4-24.1-19.7-35.3-30.6c-23.6-23.1-47.3-46-70.9-69.2c-16.4-16.1-31.7-33.3-46.5-51c-22.6-26.9-36.7-58.2-48.2-90.9
					c-16.3-46.7-27.6-94.5-33.7-143.7c-3.8-30.2-5.6-60.5-8.3-90.8c-1.4-15.5-4.3-30.8-6.7-46.2c-4.3-27.1-2.8-54.1,2.2-80.8
					c8.6-46.7,18.8-93,35.3-137.7c12.9-35.2,31.3-67.2,55.7-95.7c15.4-18,33.1-33,54.6-43.2c43-20.4,87-38.2,133.7-48.3
					c38.4-8.4,77.1-15.9,116.8-12.6c3.7,0.3,7.4,0,10.9-1.4c22.3-8.8,43.8-4.7,64.7,4.8c13.9,6.4,26.3,15.1,37.7,25.5
					c22.5,20.5,32.8,46.2,33.5,76.2c0.7,27.2-4.9,53.8-9.2,80.5c-6.2,38.3-24.9,71.1-43.6,104.1c-9.1,16.1-18.8,31.9-28,48.1
					c-19.6,34.5-15.7,68.3,3.5,101.4c4.3,7.4,11,11.9,18.9,14.8c25.9,9.3,52.7,15.2,80.1,18C1899.1-35.2,1944.4-36.1,1989.6-35.2z"
					/>
				<path class="st3" d="M1424.2,1125c-24.2,0-48.4,0.8-72.6-0.2c-27.2-1.2-53.8-6.1-79.8-14.8c-31-10.4-50.4-32.2-63.1-61.1
					c-9.9-22.5-17.8-45.8-19.8-70.4c-1.9-23.4-2.1-46.9,0.4-70.4c2.6-24,6.4-47.9,12.9-71.2c9.8-35.2,19.5-70.5,29.7-105.6
					c13-45.1,35.7-85.4,63.2-123c23.8-32.5,48-64.7,72.9-96.4c18.4-23.5,38.2-45.9,57.4-68.8c6.7-8,14.9-13.5,25.8-14
					c3.9-0.1,6.6-3,9.6-5.2c26-19.4,53.7-35.7,84.6-46c20.2-6.8,40.9-10.5,62.2-11c16.4-0.4,32.8-1.2,49.3-0.3
					c40.5,2.1,78.1,12.5,110.1,38.6c10.7,8.7,20.3,18.5,28.8,29.5c27.5,35.9,45.1,75.8,50.3,121.1c3.1,26.9,6.9,53.9,16.8,79.5
					c15.5,40.4,35.5,78.1,63.4,111.5c15.7,18.9,29.9,38.7,38.5,62.2c7.6,20.8,9.2,41.8,5.5,63.4c-6.1,36.1-19.3,69.2-42.5,97.7
					c-15.3,18.8-33.9,34.5-53.6,48.7c-29,21-59.8,38.7-94.1,49.6c-40.9,13-82.5,23.8-124.5,32.5c-22.6,4.7-45.1,10.2-68.1,13.2
					c-24.2,3.2-48.4,6.9-72.8,9.3C1484.7,1126.4,1454.4,1124.3,1424.2,1125z"/>
				<path class="st3" d="M847.7,712.1c-10.2-1.7-19.4-5.4-28-10.4c-14.9-8.5-29.9-16.7-44.2-26c-13-8.5-24.1-18.9-31.9-32.5
					c-3.7-6.4-6-13.3-5.4-21c0.2-1.8-0.1-3.6-0.6-5.3c-0.9-3.5-0.1-6.5,1.7-9.3c2.6-4.2,5.9-7.8,9.3-11.3
					c14.2-15.1,27.8-30.7,42.7-45c11.9-11.4,23.5-23.1,36.6-33.1c16.2-12.3,33.8-22.1,53.2-28.5c15.4-5.1,31.2-6.3,47.2-6.2
					c13.5,0.1,26.9,1.1,40.3,2.8c18,2.3,35.6,6.4,53.3,10.1c6.6,1.4,13.2,3.3,19.4,6.4c4.3,2.2,8.2,4.8,11.6,8
					c7.3,6.9,9.8,15.4,8.2,25.3c-1.8,10.4-6.9,19.2-12.5,27.9c-12.7,19.8-27.2,38.3-41.9,56.6c-14.3,17.9-30.8,33.5-48.7,47.9
					c-13.6,11-28.2,20.5-42.9,29.9c-9.6,6.1-19.8,11.2-31.1,13.9c-7.4,1.8-14.8,2-22.3,1.6C857,713.8,852.2,713.1,847.7,712.1z"/>
				<path class="st10" d="M643.3,719.5c5,10.8,7.2,22.8,10.2,34.4c2.7,10.6,11.1,18.4,22,24.8c5.8,3.4,12,6.5,19.5,8.8
					c9,2.8,17.5,5.9,24.9,9.8c8.4,4.4,21.8,5.1,33.6,6.9c32.2,5.1,65.3,9.5,96.1,15.7c36.4,7.4,64.4,20.3,84.8,38.3
					c6.2,5.4,11.7,11.1,15.6,17.8c8.5,14.5-0.3,32.7-22.3,53.8c-17.2,16.5-37.8,32.1-64.1,45.7c-14.5,7.5-29.5,13.1-44.8,18.2
					c-44.7,14.9-85.4,21.5-124.6,24.6c-52.1,4-96.6,0.8-135.2-8c-20.2-4.7-37.7-11.3-53.7-19.1c-23-11.2-44.8-23-62.2-37.5
					c-13.5-11.2-25.3-23.3-35.7-36.1c-12.8-15.7-23.5-32.4-32.5-49.9c-2.5-4.9-6.1-9.4-7.8-14.6c-2.1-6.4-3.2-13.2-2.9-20.5
					c0.7-13,9.6-27.5,22.3-42.6c16.9-20,37.8-39.8,65.4-58.7c20.5-14.1,42.9-25.8,67.9-35.3c15.6-5.9,31-11.3,46.1-14.3
					c16.5-3.2,29.8-2.7,39.7,0.8c12.2,4.3,19.6,11.5,26.8,18.7C637.8,706.4,640.3,713,643.3,719.5z"/>
				<path class="st11" d="M376.5,380.1c-19.8-3.7-38.5-10.9-57.4-17.4c-24.6-8.5-49.7-15.1-75.2-20.5c-23.8-5.1-47.8-8.4-71.9-10.8
					c-27.7-2.8-55.6-3-83.4-3.1c-41.1-0.3-80.3,8-119.2,17.6c-48.2,12-96.9,21.5-147.1,25c-16.1,1.1-32.2,0.7-48.3-1.5
					c-20.6-2.9-36.7-12.3-48.3-28.1c-3.6-4.9-4.5-10.4-5.6-16.1c-2.7-14,1.4-26.6,6.4-39.3c0.6-1.5,1.3-3.1,1.8-4.6
					c15-41.5,34.4-81.3,53.8-121c20-40.8,49.6-75.1,85.1-105.4C-95.7,23.1-56-5.7-14.6-32.6C23.7-57.5,63.7-79.8,105.3-100
					c20.9-10.1,43.3-17.4,65.5-25.1c40.9-14.3,82.8-26.3,124.8-37.8c20-5.5,40.1-11.1,61.2-12.2c28.5-1.6,56.1,2.9,82.4,13.8
					c22.5,9.3,39.4,24.5,51.8,43.9c18.9,29.4,29,61.2,34.2,94.4c3.8,24.7,4,49.5,5.3,74.3c2.7,51.5,6.6,103,14.7,154.2
					c2,12.7,4.4,25.4,4.7,38.1c0.6,34.8-9.4,66.6-31.4,94.6c-14.1,18-34.8,27.9-57,35.6c-24.5,8.5-50,11.3-76.4,8.1
					C382,381.5,379.3,380.7,376.5,380.1z"/>
				<path class="st11" d="M1327.5,1091.8c-25.7-6.1-51.6-11.4-76.9-18.6c-28.6-8.1-55.7-19.7-81.3-35.2
					c-30.5-18.4-46.1-45.3-53.1-77.7c-5.4-25.3-8.5-50.8-5.1-76.2c3.3-24.2,8.4-48,16.4-71.1c8.2-23.7,17.6-46.8,29.8-68.7
					c18.3-33.2,36.6-66.3,55.3-99.3c24-42.3,57.2-77.4,94.8-108.5c32.6-26.9,65.6-53.3,99.1-79c24.9-19.1,50.9-36.8,76.5-55
					c8.9-6.4,18.8-9.9,30.5-7.6c4.2,0.8,7.7-1.4,11.3-2.9c31.9-13,65-22.5,100.1-25.1c22.9-1.7,45.8-0.2,68.4,4.6
					c17.5,3.7,35.1,7.1,52.3,12.1c42.5,12.4,80,32.4,108.1,66.9c9.4,11.5,17.4,23.9,23.8,37.1c21,43.3,30.7,88,26,135.2
					c-2.8,28-4.8,56.3-0.2,84.7c7.3,44.8,20,88,42,128.9c12.4,23,23,46.7,26.8,72.7c3.4,22.9,0.3,44.6-8.4,65.5
					c-14.6,35-36.2,65.2-67.2,88.1c-20.5,15.2-43.8,26.3-67.8,35.7c-35.5,13.9-72.2,24-111,26.3c-46.3,2.8-92.8,3.2-139.4,1.3
					c-25.1-1-50.2-1.1-75.2-3.9c-26.4-2.9-52.9-5.3-79.3-8.9C1391.2,1108.6,1359.7,1098.8,1327.5,1091.8z"/>
				<path class="st11" d="M1015.6,418.2c-16.7,7-33.8,13.5-53.4,16.8c-40.9,6.9-85.1,8.6-135.6,0.1c-1.8-0.3-3.5-0.7-5.3-0.9
					c-35-4.8-73.1-24.1-112.4-49.4c-17.1-11-34.1-22.7-50.9-35.2c-19.5-14.5-38.7-29.5-57.9-44.8c-49.1-39.1-84.7-83.7-110.5-132.1
					c-16.1-30.2-27.8-59.2-34.9-86.9c-10.6-41-21.6-82.1-32.5-123.2c-11.2-42.4-16.4-81.8-15.7-118.4c0.7-36.1-0.2-73.2,1.2-108.9
					c1.2-30.5,6.4-58.3,15-83.8c4.3-12.7,8.5-25.5,12.6-38.3c5.6-17.6,14.7-32.1,28.9-42.2c8.7-6.2,18.8-10.7,31.8-11.7
					c22.1-1.7,48.4,15.7,66.3,44c7.3,11.6,11.3,22.4,14,32.8c7.4,28.3,12.8,55.8,13.7,81c1.5,40.7,14.9,85.8,40.2,135.1
					c17.5,34,38.6,68.2,64.4,102.2c19.5,25.6,42.9,48.5,66.7,71.1c29.5,28,60.4,50.2,92.8,66.6c18,9.2,36.1,18.4,54.1,27.2
					c23.2,11.4,46.5,24.3,69.9,38.8c29,18,55.5,40.1,80.8,65.4c20.3,20.4,37.8,41.7,53.3,64c14.8,21.4,17.7,37.4,10.8,49.2
					c-6,10.2-13.2,19.3-23,25.9c-8.6,5.8-15,13.8-22.4,20.8c-13.2,12.4-29.9,21.1-47.2,29.1C1025.8,414.6,1020.6,416.3,1015.6,418.2
					z"/>
				<path class="st11" d="M2000.8-61.6c20.3-2.8,40.5-5.7,60.8-8.5c70.7-10,138.2-1.2,203.4,22.6c32,11.7,62.9,25,89.9,44.8
					c27,19.7,46.8,44.3,57.6,74.4c11.8,33,9.3,66.5-2.9,99.5c-11.6,31.3-27.9,61-47.5,88.8c-24.5,34.8-53,67.1-85,96.8
					c-28.1,26-61.6,45.4-96.4,62.8c-61,30.5-125,54.2-191.6,71.5c-54.3,14.1-109.7,22.8-165.6,27.6c-91,7.8-174.3-13.3-252.5-52.1
					c-14.9-7.4-29.1-15.8-42.8-24.9c-28.9-19.2-58.1-38.2-87-57.5c-20.2-13.4-39.2-28.1-57.8-43.2c-28.4-23.1-48.2-51.9-65.2-82.4
					c-24.3-43.6-43.2-89.1-56.8-136.8c-8.3-29.3-14.5-58.9-21.7-88.4c-3.7-15.1-9-29.8-13.8-44.6c-8.4-26.1-10.6-53-8.9-80.2
					c3-47.4,7.6-94.8,19.4-141.5c9.2-36.7,24.8-71.2,47.5-103c14.3-20.1,31.6-37.7,53.6-51.1c44.1-26.8,89.7-51.1,139.2-68.2
					c40.8-14.1,81.9-27.6,125.8-30.3c4.1-0.3,8.1-1.1,11.8-3c23.2-12.1,47.2-11.4,71.3-5.2c16,4.1,30.8,10.9,44.7,19.4
					c27.4,16.8,42.2,40.6,47.1,70.1c4.5,26.8,2.2,53.9,1.2,80.9c-1.4,38.8-17.3,74.1-33.1,109.5c-7.7,17.3-16.1,34.4-23.9,51.8
					c-16.7,37.1-7.6,69.8,17.9,99.7c5.7,6.6,13.6,10.1,22.7,11.7c29.6,5.2,59.6,7,89.9,5.5C1901.9-47.7,1951.2-55.5,2000.8-61.6z"/>
				<path class="st11" d="M668.2,773.1c1.7,40.3-7.4,82.5-16.1,124.8c-14.3,70.2-46.3,131.7-89.9,187.6
					c-29.9,38.3-60,76.4-95.8,109.6c-46.6,43.2-95.8,82.9-152,113.4c-20.4,11.1-42.1,18.3-64.3,24.6c-34.5,9.9-68.9,20.3-103.9,28.3
					c-20,4.6-40.5,6.3-60.8,8.3c-22.3,2.2-44.6,3-67,0.9c-35-3.2-65.2-16.8-90.3-41.1c-32.4-31.2-55.2-68.7-68.8-111.5
					c-11.8-37-20.8-74.7-27.6-112.9c-4.1-22.8-3.5-45.8,1.2-68.7c1-4.9,2-10,4.6-14.4c4.8-8,6.8-16.7,7.8-25.9
					c3.3-29.1,13.1-56.3,23.9-83.3c23.9-59.3,59.8-110.7,101.5-158.6c26.6-30.5,56.6-57.5,86.5-84.7
					c42.5-38.7,85.7-76.3,132.7-109.5c38.7-27.3,78.7-52.4,120.8-74.1c40.3-20.8,83-34.9,128.1-40.9c22.2-2.9,44-1.5,64.6,8.8
					c16.3,8.2,32.9,15.9,49.4,23.7c30.6,14.5,51.5,38.4,67.7,67.6c18,32.4,28.8,67,35.5,103.2C663.6,688.7,668.4,729,668.2,773.1z"
					/>
				<path class="st11" d="M616.7,718.5c7.3,10.1,12,22,17.4,33.4c4.9,10.4,15.2,16.7,27.7,21.2c6.6,2.4,13.7,4.3,21.8,5.2
					c9.9,1,19.2,2.6,27.6,5.2c9.5,2.9,23.5,0.8,36,0.4c34.2-1.2,69.2-3.3,102.2-3c39,0.3,70.5,8,95.1,22.5
					c7.4,4.3,14.3,9.1,19.6,15.2c11.6,13.2,6.2,33.8-12.2,59.9c-14.5,20.5-32.6,40.6-57,59.9c-13.5,10.6-27.8,19.5-42.5,27.7
					c-43.1,24.3-83.7,39.3-123.5,50.3c-52.9,14.6-99.4,20.2-141,18.8c-21.8-0.8-41.2-4.1-59.1-8.9c-25.9-6.9-50.8-14.7-71.7-26.2
					c-16.1-8.9-30.7-18.9-44-30.1c-16.3-13.6-30.7-28.7-43.5-45c-3.6-4.5-8.2-8.4-11-13.5c-3.4-6.2-6-12.9-7.1-20.6
					c-1.9-13.5,4.4-30.3,14.4-48.4c13.4-24,31-48.5,55.7-73.6c18.3-18.6,39-35.2,62.9-50c14.9-9.2,29.7-17.9,44.7-23.9
					c16.4-6.6,30.1-8.8,41.1-7.1c13.4,2,22.5,7.9,31.4,13.9C608.4,706.2,612.4,712.5,616.7,718.5z"/>
				<path class="st11" d="M868.8,726c-10.9,0.3-21-1.7-31-5.1c-17-5.8-34.1-11.2-50.8-18c-15.1-6.1-28.6-14.7-39.4-27.1
					c-5.1-5.9-8.9-12.5-9.7-20.5c-0.2-1.8-0.8-3.7-1.6-5.4c-1.7-3.4-1.4-6.6-0.1-9.9c1.9-4.8,4.5-9.2,7.3-13.6
					c11.6-18.4,22.5-37.2,35-55c9.9-14.1,19.6-28.5,31.1-41.4c14.2-15.9,30.4-29.5,49.2-40c14.8-8.3,30.9-12.7,47.4-15.8
					c13.9-2.6,28-4.3,42.1-5.2c19-1.2,38-0.6,57-0.2c7.1,0.1,14.3,0.7,21.3,2.8c4.8,1.4,9.4,3.2,13.6,5.9
					c8.9,5.7,13.2,13.9,13.5,24.5c0.3,11.1-3.3,21.2-7.3,31.2c-9.1,23-20.3,44.9-31.8,66.7c-11.2,21.3-25.1,40.7-40.6,59.1
					c-11.8,14.1-25,26.8-38.3,39.4c-8.7,8.2-18.2,15.6-29.2,20.6c-7.2,3.3-14.8,5-22.7,6.2C878.8,725.8,873.7,726,868.8,726z"/>
			</g>
		</g>
	</g>
</g>
</svg>
