<?xml version="1.0" encoding="utf-8"?>
<!-- Generator: Adobe Illustrator 27.2.0, SVG Export Plug-In . SVG Version: 6.00 Build 0)  -->
<svg version="1.1" id="Layer_1" xmlns="http://www.w3.org/2000/svg" xmlns:xlink="http://www.w3.org/1999/xlink" x="0px" y="0px"
	 viewBox="0 0 512 512" style="enable-background:new 0 0 512 512;" xml:space="preserve">
<g>
	<path d="M208.76,239.29c0,0,46.36-3.45,46.36-57.82c0-54.38-37.93-80.92-85.98-80.92H80.67h-2.59H11v303.89h67.08h2.59h88.46
		c0,0,96.53,3.05,96.53-89.7C265.65,314.73,269.87,239.29,208.76,239.29z M80.67,154.55h77.07h11.38c0,0,21.5,0,21.5,31.61
		c0,31.63-12.65,36.21-26.98,36.21H80.66L80.67,154.55L80.67,154.55z M164.65,350.42c-2.34,0.06-4.32,0-5.65,0H80.67v-81.2h88.46
		c0,0,32.04-0.42,32.04,41.71C201.16,346.49,177.24,350.15,164.65,350.42z"/>
	<path d="M394.41,177.86c-116.86,0-116.76,116.76-116.76,116.76s-8.01,116.16,116.76,116.16c0,0,103.99,5.94,103.99-80.82h-53.49
		c0,0,1.78,32.68-48.73,32.68c0,0-53.47,3.56-53.47-52.89h157.46C500.17,309.76,517.41,177.86,394.41,177.86z M342.12,269.22
		c0,0,6.53-46.84,53.47-46.84c46.96,0,46.34,46.84,46.34,46.84H342.12z"/>
	<rect x="329.04" y="118.44" width="125.35" height="37.43"/>
</g>
</svg>
