<?xml version="1.0" encoding="utf-8"?>
<!-- Generator: Adobe Illustrator 27.2.0, SVG Export Plug-In . SVG Version: 6.00 Build 0)  -->
<svg version="1.1" id="Layer_1" xmlns="http://www.w3.org/2000/svg" xmlns:xlink="http://www.w3.org/1999/xlink" x="0px" y="0px"
	 viewBox="0 0 512 512" style="enable-background:new 0 0 512 512;" xml:space="preserve">
<path d="M501,104.04c-18.01,8.01-37.4,13.41-57.74,15.83c20.77-12.43,36.69-32.13,44.2-55.62c-19.43,11.53-40.93,19.89-63.84,24.41
	c-18.33-19.54-44.46-31.75-73.38-31.75c-55.51,0-100.52,45.01-100.52,100.53c0,7.87,0.89,15.54,2.61,22.91
	C168.78,176.14,94.7,136.12,45.12,75.3c-8.65,14.84-13.61,32.11-13.61,50.55c0,34.87,17.74,65.65,44.72,83.67
	c-16.47-0.53-31.98-5.05-45.54-12.58c-0.01,0.42-0.01,0.85-0.01,1.27c0,48.7,34.65,89.32,80.65,98.57
	c-8.43,2.29-17.32,3.52-26.49,3.52c-6.49,0-12.78-0.63-18.92-1.81c12.8,39.94,49.92,69.01,93.91,69.82
	c-34.41,26.97-77.74,43.04-124.85,43.04c-8.11,0-16.11-0.48-23.98-1.41c44.5,28.54,97.34,45.17,154.1,45.17
	c184.92,0,286.02-153.18,286.02-286.02c0-4.36-0.09-8.7-0.28-13.02C470.48,141.91,487.53,124.2,501,104.04z"/>
</svg>
