<?xml version="1.0" encoding="utf-8"?>
<!-- Generator: Adobe Illustrator 27.2.0, SVG Export Plug-In . SVG Version: 6.00 Build 0)  -->
<svg version="1.1" id="Layer_1" xmlns="http://www.w3.org/2000/svg" xmlns:xlink="http://www.w3.org/1999/xlink" x="0px" y="0px"
	 viewBox="0 0 512 512" style="enable-background:new 0 0 512 512;" xml:space="preserve">
<path d="M11,372.84l41.38,71.56h0.02c8.41,16.68,25.5,27.21,44.18,27.22h274.74l-57-98.77C314.33,372.84,11,372.84,11,372.84z
	 M501,373.35c0-9.88-2.92-19.09-7.92-26.83L332.11,66.7c-8.58-16.19-25.41-26.32-43.73-26.32h-85.08l248.65,430.81l39.2-67.88
	C498.87,390.3,501,384.54,501,373.35z M273.78,302.67L162.66,110.19L51.51,302.67C51.51,302.67,273.78,302.67,273.78,302.67z"/>
</svg>
