<?xml version="1.0" encoding="UTF-8" standalone="no"?>
<!-- Generator: Adobe Illustrator 27.2.0, SVG Export Plug-In . SVG Version: 6.00 Build 0)  -->

<svg
   version="1.1"
   id="Layer_1"
   x="0px"
   y="0px"
   viewBox="0 0 512 512"
   style="enable-background:new 0 0 512 512;"
   xml:space="preserve"
   sodipodi:docname="bluesky.svg"
   inkscape:version="1.4 (e7c3feb1, 2024-10-09)"
   xmlns:inkscape="http://www.inkscape.org/namespaces/inkscape"
   xmlns:sodipodi="http://sodipodi.sourceforge.net/DTD/sodipodi-0.dtd"
   xmlns="http://www.w3.org/2000/svg"
   xmlns:svg="http://www.w3.org/2000/svg"><defs
   id="defs1" /><sodipodi:namedview
   id="namedview1"
   pagecolor="#ffffff"
   bordercolor="#000000"
   borderopacity="0.25"
   inkscape:showpageshadow="2"
   inkscape:pageopacity="0.0"
   inkscape:pagecheckerboard="0"
   inkscape:deskcolor="#d1d1d1"
   inkscape:zoom="0.79882813"
   inkscape:cx="-6.2591687"
   inkscape:cy="326.72861"
   inkscape:window-width="2560"
   inkscape:window-height="967"
   inkscape:window-x="0"
   inkscape:window-y="25"
   inkscape:window-maximized="0"
   inkscape:current-layer="Layer_1" />

<path
   d="m 117.35773,69.516938 c 56.11913,42.130702 116.48164,127.554232 138.6437,173.397452 22.16375,-45.83985 82.52288,-131.26759 138.6437,-173.397452 40.4926,-30.399833 106.10109,-53.921498 106.10109,20.92568 0,14.948002 -8.57028,125.570952 -13.59682,143.530152 -17.47227,62.43861 -81.14052,78.3639 -137.77446,68.72518 98.99505,16.84857 124.17844,72.65713 69.79193,128.46569 -103.29074,105.9914 -148.45881,-26.59363 -160.03777,-60.56673 -2.12168,-6.22809 -3.1145,-9.14164 -3.1291,-6.66415 -0.0147,-2.47758 -1.00743,0.43606 -3.12911,6.66415 C 241.297,404.57001 196.12977,537.15841 92.833121,431.16364 38.44577,375.35508 63.628319,319.54314 162.62505,302.69795 105.98942,312.33667 42.320333,296.4113 24.850617,233.97277 19.8239,216.01188 11.253781,105.38893 11.253781,90.442618 c 0,-74.847178 65.610164,-51.325513 106.101079,-20.92568 z"
   fill="#1185fe"
   id="path1-3"
   style="fill:#000000;fill-opacity:1;stroke-width:0.843946" /></svg>
