<?xml version="1.0" encoding="utf-8"?>
<!-- Generator: Adobe Illustrator 27.2.0, SVG Export Plug-In . SVG Version: 6.00 Build 0)  -->
<svg version="1.1" id="Layer_1" xmlns="http://www.w3.org/2000/svg" xmlns:xlink="http://www.w3.org/1999/xlink" x="0px" y="0px"
	 viewBox="0 0 512 512" style="enable-background:new 0 0 512 512;" xml:space="preserve">
<style type="text/css">
	.st0{fill-rule:evenodd;clip-rule:evenodd;}
</style>
<g>
	<path class="st0" d="M256,11.01c-135.3,0-245,112.44-245,251.23c0,111.02,70.22,205.08,167.56,238.33
		c12.25,2.3,16.73-5.47,16.73-12.14c0-6.02-0.22-21.77-0.33-42.77c-68.14,15.2-82.58-33.69-82.58-33.69
		c-11.16-28.98-27.23-36.75-27.23-36.75c-22.2-15.64,1.64-15.31,1.64-15.31c24.61,1.75,37.52,25.92,37.52,25.92
		c21.87,38.39,57.31,27.34,71.31,20.89c2.19-16.19,8.53-27.34,15.53-33.58c-54.36-6.34-111.56-27.89-111.56-124.14
		c0-27.45,9.52-49.88,25.16-67.38c-2.52-6.34-10.94-31.94,2.41-66.5c0,0,20.56-6.78,67.38,25.7c19.58-5.58,40.47-8.31,61.36-8.42
		c20.78,0.11,41.78,2.84,61.36,8.42c46.81-32.48,67.27-25.7,67.27-25.7c13.34,34.56,4.92,60.16,2.41,66.5
		c15.64,17.61,25.16,40.03,25.16,67.38c0,96.47-57.31,117.69-111.89,123.92c8.75,7.77,16.62,23.08,16.62,46.48
		c0,33.58-0.33,60.7-0.33,68.91c0,6.67,4.38,14.55,16.84,12.03C430.89,467.22,501,373.15,501,262.25
		C501,123.45,391.3,11.01,256,11.01z"/>
</g>
</svg>
