<?xml version="1.0" encoding="utf-8"?>
<!-- Generator: Adobe Illustrator 27.2.0, SVG Export Plug-In . SVG Version: 6.00 Build 0)  -->
<svg version="1.1" id="Layer_1" xmlns="http://www.w3.org/2000/svg" xmlns:xlink="http://www.w3.org/1999/xlink" x="0px" y="0px"
	 viewBox="0 0 512 512" style="enable-background:new 0 0 512 512;" xml:space="preserve">
<g>
	<path d="M256,128.56c-69.15,0-126.45,56.31-126.45,126.45S185.86,381.46,256,381.46s126.45-57.3,126.45-126.45
		S325.15,128.56,256,128.56z M256,336.02c-44.46,0-81.01-36.55-81.01-81.01S211.54,174,256,174s81.01,36.55,81.01,81.01
		S300.46,336.02,256,336.02z"/>
	<circle cx="387.39" cy="125.6" r="28.65"/>
	<path d="M461.48,51.5C435.8,24.83,399.25,11,357.75,11H154.25C68.3,11,11,68.3,11,154.25v202.52c0,42.48,13.83,79.03,41.49,105.71
		C79.17,488.16,114.73,501,155.23,501h201.53c42.48,0,78.04-13.83,103.73-38.53c26.67-25.69,40.5-62.24,40.5-104.72V154.25
		C501,112.75,487.17,77.19,461.48,51.5z M457.53,357.75c0,30.62-10.87,55.32-28.65,72.12s-42.48,25.69-72.12,25.69H155.23
		c-29.64,0-54.33-8.89-72.12-25.69c-17.78-17.78-26.67-42.48-26.67-73.1V154.25c0-29.64,8.89-54.33,26.67-72.12
		c16.79-16.79,42.48-25.69,72.12-25.69h203.51c29.64,0,54.33,8.89,72.12,26.67c16.79,17.78,26.67,42.48,26.67,71.13V357.75
		L457.53,357.75z"/>
</g>
</svg>
